HIERARCHY
ROOT Bip001_Pelvis
{
  OFFSET 7.937 94.8971 -8.5489
  CHANNELS 6 Xposition Yposition Zposition Zrotation Xrotation Yrotation
  JOINT Bip001_Spine
  {
    OFFSET 1.44608e-005 10.4157 -0.0118244
    CHANNELS 3 Zrotation Xrotation Yrotation
    JOINT Bip001_L_Thigh
    {
      OFFSET 11.2582 -10.4157 0.0118432
      CHANNELS 3 Zrotation Xrotation Yrotation
      JOINT Bip001_L_Calf
      {
        OFFSET -0.720717 -44.8687 0.366937
        CHANNELS 3 Zrotation Xrotation Yrotation
        JOINT Bip001_L_Foot
        {
          OFFSET -0.664439 -41.3745 -3.62995
          CHANNELS 3 Zrotation Xrotation Yrotation
          JOINT Bip001_L_Toe0
          {
            OFFSET 0.0541047 -10.4146 13.4033
            CHANNELS 3 Zrotation Xrotation Yrotation
            End Site
            {
              OFFSET -1.04503e-005 0 7.70137
            }
          }
        }
      }
    }
    JOINT Bip001_R_Thigh
    {
      OFFSET -11.2582 -10.4156 0.0118122
      CHANNELS 3 Zrotation Xrotation Yrotation
      JOINT Bip001_R_Calf
      {
        OFFSET 0.72059 -44.8687 0.36676
        CHANNELS 3 Zrotation Xrotation Yrotation
        JOINT Bip001_R_Foot
        {
          OFFSET 0.664321 -41.3745 -3.62979
          CHANNELS 3 Zrotation Xrotation Yrotation
          JOINT Bip001_R_Toe0
          {
            OFFSET -0.05417 -10.4146 13.4033
            CHANNELS 3 Zrotation Xrotation Yrotation
            End Site
            {
              OFFSET -1.04873e-005 0 7.70137
            }
          }
        }
      }
    }
    JOINT Bip001_Spine1
    {
      OFFSET 1.90638e-005 14.8539 1.10727
      CHANNELS 3 Zrotation Xrotation Yrotation
      JOINT Bip001_Spine2
      {
        OFFSET 2.28934e-005 14.7848 -1.7233
        CHANNELS 3 Zrotation Xrotation Yrotation
        JOINT Bip001_Neck
        {
          OFFSET 2.24514e-005 15.6905 -0.498826
          CHANNELS 3 Zrotation Xrotation Yrotation
          JOINT Bip001_L_Clavicle
          {
            OFFSET 6.17691 -0.000591152 0.00852867
            CHANNELS 3 Zrotation Xrotation Yrotation
            JOINT Bip001_L_UpperArm
            {
              OFFSET 11.773 -0.0611878 0.00197697
              CHANNELS 3 Zrotation Xrotation Yrotation
              JOINT Bip001_L_Forearm
              {
                OFFSET 26.4515 0.0817568 -2.19579
                CHANNELS 3 Zrotation Xrotation Yrotation
                JOINT Bip001_L_Hand
                {
                  OFFSET 32.8677 0.156744 1.67112
                  CHANNELS 3 Zrotation Xrotation Yrotation
                  JOINT Bip001_L_Finger0
                  {
                    OFFSET 6.16268 -2.25226 6.01674
                    CHANNELS 3 Zrotation Xrotation Yrotation
                    End Site
                    {
                      OFFSET 4.30499 -1.46662 0.618148
                    }
                  }
                  JOINT Bip001_L_Finger1
                  {
                    OFFSET 11.2957 -0.718374 -0.201963
                    CHANNELS 3 Zrotation Xrotation Yrotation
                    End Site
                    {
                      OFFSET 6.31952 -0.405163 -0.0802303
                    }
                  }
                }
              }
            }
          }
          JOINT Bip001_R_Clavicle
          {
            OFFSET -6.17691 -0.000574027 0.00851165
            CHANNELS 3 Zrotation Xrotation Yrotation
            JOINT Bip001_R_UpperArm
            {
              OFFSET -11.773 -0.0611516 0.00194365
              CHANNELS 3 Zrotation Xrotation Yrotation
              JOINT Bip001_R_Forearm
              {
                OFFSET -26.4514 0.0822334 -2.19736
                CHANNELS 3 Zrotation Xrotation Yrotation
                JOINT Bip001_R_Hand
                {
                  OFFSET -32.8677 0.156817 1.67144
                  CHANNELS 3 Zrotation Xrotation Yrotation
                  JOINT Bip001_R_Finger0
                  {
                    OFFSET -6.1627 -2.25224 6.0167
                    CHANNELS 3 Zrotation Xrotation Yrotation
                    End Site
                    {
                      OFFSET -4.30499 -1.46662 0.618134
                    }
                  }
                  JOINT Bip001_R_Finger1
                  {
                    OFFSET -11.2958 -0.718344 -0.201994
                    CHANNELS 3 Zrotation Xrotation Yrotation
                    End Site
                    {
                      OFFSET -6.31952 -0.405146 -0.0802475
                    }
                  }
                }
              }
            }
          }
          JOINT Bip001_Head
          {
            OFFSET 1.11782e-005 11.4912 2.09908
            CHANNELS 3 Zrotation Xrotation Yrotation
            End Site
            {
              OFFSET 2.95144e-005 21.2823 -2.83069e-005
            }
          }
        }
      }
    }
  }
}
MOTION
Frames:	13
Frame Time:	0.04
6.28267 95.6405 -8.67238 -0.145862 -1.53951 2.41892 0.138241 0.508933 0.126346 6.39557 -6.74045 9.40575 -0.840706 13.5444 -1.27462 -4.00486 -4.60295 -1.68817 0.650578 -9.90204 0.0985724 -7.11764 -4.86252 -0.163332 0.812283 14.6152 2.13556 0.300008 -8.01463 -11.7121 -1.27921 -11.4303 0.870737 0.0921142 1.01796 0.241794 0.0921142 1.01796 0.241794 -0.198104 0.978179 -7.54057 -27.145 1.95136 -8.39606 -49.1541 38.1198 4.78336 14.745 2.87359 -28.3912 -3.28628 0.00471673 -1.74489 3.18055e-015 9.54166e-015 1.59028e-015 -3.18055e-015 3.18056e-015 3.18055e-015 23.5106 9.2438 26.3333 24.2955 -15.6937 36.1724 -33.1256 -1.82791 51.3349 -52.2306 1.32655 0.274989 1.59028e-015 7.95139e-016 -1.98785e-015 1.59028e-015 7.95139e-016 -5.96354e-016 -0.779635 8.04256 -7.14892 
6.26059 95.6452 -8.7194 -0.220853 -1.55644 1.99276 0.214907 0.526144 0.140752 6.44314 -6.70076 9.52112 -0.885371 13.59 -1.0249 -4.02777 -4.65476 -1.64109 0.650538 -9.90196 0.0953635 -7.10922 -4.96818 -0.201023 0.759652 14.5569 2.33979 0.316163 -7.8978 -11.4908 -1.29298 -11.4304 0.896793 0.242087 1.05255 0.269303 0.242085 1.05256 0.269299 -0.634686 0.848023 -6.95228 -27.4149 2.25633 -8.35591 -48.514 38.9926 4.56438 14.3684 3.47289 -27.1848 -3.80185 -0.047095 -1.72831 -3.18055e-015 -6.36111e-015 1.59028e-015 -3.18055e-015 -9.54167e-015 1.59028e-015 23.4433 9.05999 25.9987 22.4048 -15.1574 37.8435 -33.7526 0.0720882 47.5424 -51.7063 0.357995 0.75335 -4.96564e-032 -2.38542e-015 -1.19271e-015 1.59028e-015 -1.59028e-015 -3.18055e-015 -0.649083 7.97103 -6.74467 
6.2522 95.6527 -8.73967 -0.276471 -1.57729 1.68613 0.22236 0.540187 0.194325 6.49208 -6.64297 9.45683 -0.901103 13.5736 -0.954585 -4.04485 -4.69837 -1.43687 0.657439 -9.90147 0.132458 -7.08123 -4.99685 -0.234664 0.768031 14.4623 2.38917 0.372893 -7.80814 -11.3027 -1.34337 -11.4303 0.950836 0.248867 1.08076 0.37565 0.248867 1.08076 0.37565 -0.573639 0.769924 -6.62809 -27.8565 2.45456 -8.50644 -48.43 39.3348 4.75382 14.3952 4.44401 -25.8668 -4.24731 -0.0397014 -1.67967 3.18055e-015 -3.18055e-015 3.18055e-015 6.36111e-015 -3.18056e-015 1.59028e-015 23.6945 9.03871 25.5081 23.9625 -15.1625 35.3265 -36.7566 -0.192937 52.6287 -50.5445 2.64955 0.789237 3.18055e-015 -3.18055e-015 -1.39149e-015 4.77083e-015 -3.18056e-015 1.59028e-015 -0.60503 7.73014 -6.42708 
6.23298 95.6589 -8.75673 -0.333915 -1.53017 1.57415 0.173798 0.560764 0.279219 6.61879 -6.71884 9.27172 -0.965236 13.5949 -0.77877 -4.04957 -4.71447 -1.38951 0.65893 -9.90019 0.137956 -6.99061 -5.03829 -0.35718 0.773805 14.3512 2.3713 0.420815 -7.74176 -11.1636 -1.39159 -11.4304 0.969037 0.145191 1.12186 0.545244 0.145191 1.12186 0.545244 0.012038 0.607524 -6.52952 -28.322 2.67824 -8.84108 -49.081 39.3934 5.57442 14.4065 4.74601 -25.0701 -4.17967 0.110983 -1.14959 3.18055e-015 -9.54166e-015 -1.59028e-015 -0 -6.36111e-015 -0 23.8617 9.08398 24.5821 23.8912 -14.976 33.5801 -38.1982 0.729423 55.8056 -51.3482 2.65645 1.02451 -6.06912e-032 7.95139e-016 4.37326e-015 0 7.95139e-016 -0 -1.08221 7.5018 -6.02267 
6.22237 95.6517 -8.75931 -0.357165 -1.52307 1.668 0.113427 0.583503 0.278417 6.71706 -6.81035 9.28559 -0.967365 13.6775 -0.932196 -4.03265 -4.75063 -1.346 0.659968 -9.89837 0.140621 -6.89428 -5.05492 -0.38046 0.764276 14.3649 2.31675 0.417326 -7.76206 -11.1769 -1.3831 -11.4306 0.97695 0.0248505 1.16704 0.544298 0.0248508 1.16704 0.544297 0.30128 0.65753 -6.26581 -28.4821 2.73007 -9.12743 -49.5491 38.9335 6.09479 14.1195 4.80707 -24.3444 -4.24608 -0.00347237 -1.169 -3.18055e-015 3.18055e-015 -1.59028e-015 8.82782e-032 3.18056e-015 -1.59028e-015 25.4511 9.19216 23.4119 22.533 -13.8408 29.9605 -39.0716 1.21464 60.2803 -52.7625 1.87099 1.73839 1.59028e-015 3.97569e-015 5.1684e-015 3.18055e-015 3.97569e-015 4.17448e-015 -1.26092 7.50094 -5.6308 
6.20161 95.6455 -8.73799 -0.371921 -1.57743 1.88018 0.112972 0.630464 0.191482 6.7832 -6.86257 9.80644 -0.865815 13.774 -1.33686 -4.04824 -4.75667 -1.58463 0.658413 -9.89626 0.127858 -6.84046 -5.00012 -0.162806 0.810003 14.3708 2.06084 0.393441 -7.80389 -11.2593 -1.37192 -11.4308 0.958847 0.00772483 1.26093 0.371122 0.00772464 1.26092 0.371118 0.48218 1.01006 -5.83817 -28.6589 2.54976 -9.49087 -49.4729 38.6468 5.85597 13.2674 4.86981 -23.5612 -4.14095 0.0415226 -0.952452 3.18055e-015 3.18055e-015 -0 3.18055e-015 -3.18056e-015 1.59028e-015 26.8078 8.81919 22.262 21.7014 -11.6403 25.9421 -41.1581 2.07683 64.699 -53.3034 0.788143 3.18305 3.18055e-015 3.18055e-015 -7.95139e-016 6.36111e-015 1.59028e-015 -1.59028e-015 -1.89388 7.20874 -4.99318 
6.19197 95.6394 -8.71815 -0.39614 -1.61922 2.05866 0.116171 0.677544 0.106448 6.8108 -6.93752 9.2974 -0.990121 13.8605 -1.01729 -4.02958 -4.79823 -1.47955 0.66038 -9.8941 0.134888 -6.80206 -4.96578 -0.00577888 0.831639 14.3714 1.90023 0.350773 -7.82468 -11.3389 -1.33528 -11.4311 0.938162 0.0386165 1.35511 0.201438 0.038617 1.35512 0.20144 0.118759 1.44137 -5.1931 -28.5399 2.39149 -9.82976 -49.7025 38.9703 6.14377 12.8448 4.405 -23.1825 -4.30442 -0.112312 -1.27157 6.36111e-015 -9.54166e-015 -1.59028e-015 1.59028e-015 -6.36111e-015 -0 28.2659 8.25754 21.2553 20.7264 -7.96229 20.7513 -43.1952 3.1296 68.0256 -53.4797 -0.00672895 5.06711 0 0 -1.59028e-015 -3.18055e-015 -1.59028e-015 -2.38542e-015 -1.90154 7.32213 -4.47554 
6.19988 95.6299 -8.70768 -0.412017 -1.62885 2.16322 0.0771819 0.753765 0.076676 6.86834 -7.06831 9.20588 -1.01558 13.9628 -1.08198 -4.00449 -4.85381 -1.38966 0.662062 -9.89215 0.139734 -6.73328 -5.01769 0.0627544 0.816577 14.3998 1.75749 0.371055 -7.85802 -11.3362 -1.3305 -11.4313 0.936396 -0.0377304 1.50749 0.1426 -0.0377303 1.50749 0.142599 0.396504 1.87694 -4.81459 -28.7314 2.16289 -10.362 -49.942 39.5945 6.39527 12.6977 4.01651 -22.9579 -4.47509 -0.183491 -1.30358 1.59028e-015 -3.18055e-015 -1.59028e-015 -8.82782e-032 -3.18056e-015 -1.59028e-015 29.5802 7.9091 20.5627 19.262 -2.0536 15.5543 -44.2277 3.55135 68.7875 -50.9888 -1.41836 6.76752 -9.54166e-015 0 -0 -3.18055e-015 1.59028e-015 -7.95139e-016 -2.26955 7.5887 -3.91552 
6.24526 95.6249 -8.66925 -0.447606 -1.85646 1.95663 0.02829 0.868154 0.119317 6.96304 -6.93094 9.48383 -1.00177 14.0699 -1.28049 -3.96849 -4.97274 -1.33968 0.665359 -9.88708 0.153743 -6.65456 -4.90935 0.320079 0.82691 14.3607 1.60539 0.416815 -7.83018 -11.2685 -1.32166 -11.4314 0.936997 -0.136409 1.73616 0.229327 -0.13641 1.73617 0.229328 0.6218 2.54761 -4.36863 -28.7572 1.81042 -11.2131 -49.9547 39.242 6.31069 12.413 4.15177 -22.7348 -4.48103 -0.241417 -1.47691 3.18055e-015 -6.36111e-015 1.59028e-015 1.59028e-015 -3.18056e-015 1.59028e-015 30.4218 7.23048 20.1344 18.8685 6.69748 11.0045 -42.1232 3.59717 65.9997 -48.2027 -1.03588 6.98155 -1.59028e-014 0 3.18055e-015 -9.54166e-015 1.59028e-015 -0 -2.39016 8.21971 -3.36486 
6.30401 95.6098 -8.71691 -0.446377 -1.77164 1.79991 -0.00206907 0.938208 0.139578 6.93577 -7.14157 9.50508 -0.949951 14.186 -1.29463 -3.95884 -5.04879 -1.23508 0.672487 -9.88096 0.190071 -6.65983 -5.18391 0.594425 0.85683 14.4694 1.38393 0.495293 -7.84438 -11.2156 -1.33765 -11.4315 0.958895 -0.200254 1.87618 0.269776 -0.200254 1.87618 0.269777 0.431491 3.13156 -3.72443 -28.8675 1.53826 -11.7034 -49.2419 39.0804 5.68245 12.0985 4.67316 -22.4748 -4.40933 -0.235273 -1.67451 -6.36111e-015 3.18055e-015 3.18055e-015 -3.18055e-015 6.36111e-015 1.59028e-015 31.9053 6.67479 19.6811 19.3785 16.3287 7.59633 -38.7103 2.93293 60.5245 -41.5906 0.270086 5.61697 -3.18055e-015 7.95139e-016 -0 -3.18055e-015 1.59028e-015 -1.59028e-015 -2.35479 9.16566 -2.78688 
6.39381 95.5981 -8.71655 -0.403531 -1.87945 1.9416 -0.00416476 1.04662 0.118341 6.81491 -7.20925 9.23175 -0.955825 14.2552 -1.25914 -3.90246 -5.09235 -1.12756 0.676576 -9.88006 0.208821 -6.76727 -5.17482 0.342889 0.81729 14.5294 1.40386 0.577431 -7.89722 -11.0932 -1.33458 -11.4316 0.97065 -0.205414 2.09304 0.224702 -0.20532 2.09305 0.224518 0.000376347 4.03569 -3.12807 -28.7991 0.966632 -12.2584 -48.6573 38.5911 4.97068 11.9451 5.05305 -22.2644 -4.08289 -0.20687 -1.889 -1.59028e-015 -3.18055e-015 -0 -0 -3.18056e-015 -0 32.9735 5.66893 19.3821 21.448 26.2413 5.31311 -34.3161 1.97167 52.3594 -33.6016 1.65976 4.39221 2.38542e-015 -4.47265e-015 7.95139e-016 1.59028e-015 -3.97569e-015 -0 -2.31265 9.6217 -2.35174 
6.48217 95.5908 -8.71669 -0.387771 -1.97718 2.09163 -0.00764051 1.17127 0.114818 6.7654 -7.31375 9.13781 -0.997504 14.3572 -1.19679 -3.81854 -5.124 -1.2091 0.674533 -9.87964 0.192279 -6.85773 -5.14964 0.0945802 0.803387 14.5103 1.38597 0.655293 -7.91114 -10.9583 -1.33616 -11.4317 0.971474 -0.211045 2.34236 0.221767 -0.211044 2.34235 0.221767 -0.37784 4.94853 -2.64339 -28.6725 0.339423 -12.7998 -48.6863 39.9303 5.14532 12.3588 3.32807 -22.863 -4.11006 -0.266153 -1.49638 -1.59028e-015 -3.18055e-015 1.59028e-015 -4.77083e-015 0 3.18055e-015 33.9994 4.68914 19.1452 24.0173 33.9518 3.91166 -27.664 0.584905 44.1052 -24.4951 3.08112 2.02996 3.18055e-015 5.1187e-015 -1.19271e-015 3.18055e-015 4.62175e-015 -1.19271e-015 -2.35985 9.75024 -1.99363 
6.55758 95.5797 -8.73894 -0.390196 -2.0197 2.28232 -0.00246013 1.28217 0.0977554 6.72652 -7.50196 8.88862 -1.06811 14.4903 -1.19045 -3.73044 -5.17035 -1.11604 0.675951 -9.87949 0.196593 -6.92571 -5.18011 -0.161763 0.775447 14.5064 1.36171 0.753953 -7.92944 -10.8414 -1.35973 -11.4319 0.962847 -0.202577 2.56418 0.187906 -0.202578 2.56418 0.187908 -0.888351 5.79302 -2.09081 -28.4217 -0.226265 -13.2929 -47.8179 38.6569 4.0082 11.9612 4.35411 -22.8547 -3.83291 -0.252566 -1.987 3.18055e-015 -6.36111e-015 -0 8.82782e-032 -3.18056e-015 1.59028e-015 35.3009 3.94898 19.2669 27.2736 39.144 2.14368 -21.5526 -1.53288 35.8152 -11.1151 3.94667 -0.0977313 3.18055e-015 -7.95139e-016 -1.59028e-015 3.18055e-015 1.59028e-015 -1.59028e-015 -2.35141 9.98057 -1.63147 
